<?xml version="1.0" encoding="UTF-8"?>
<svg id="Layer_1" data-name="Layer 1" xmlns="http://www.w3.org/2000/svg" viewBox="0 0 178.83 85.09">
  <defs>
    <style>
      .cls-1 {
        fill: #53664e;
      }
    </style>
  </defs>
  <path class="cls-1" d="M46.56,5.31H5.56v35.32h32.6v5.43H5.56v39.03H0V0h46.56v5.31Z"/>
  <path class="cls-1" d="M59.91,0h34.58c18.9,0,27.05,13.71,27.05,27.54s-8.15,27.29-27.05,27.29h-18.77v30.26h-15.81V0ZM75.72,14.08v26.67h18.03c8.15,0,11.98-6.92,11.98-13.21s-3.58-13.46-11.49-13.46h-18.52Z"/>
  <path class="cls-1" d="M124.17,2.53V0h19.71v2.53h-8.5v24.25h-2.79V2.53h-8.43ZM178.83,26.78h-2.79l-2.72-21.79-9.34,19.06h-2.46l-9.34-19.2-2.72,21.92h-2.79l3.37-26.78h2.53l10.25,21.14L172.93,0h2.53l3.37,26.78Z"/>
</svg>
