<?xml version="1.0" encoding="UTF-8"?>
<svg id="Layer_2" data-name="Layer 2" xmlns="http://www.w3.org/2000/svg" viewBox="0 0 200.8 24.01">
  <defs>
    <style>
      .cls-1 {
        fill: #f4e8d8;
      }
    </style>
  </defs>
  <g id="FutureProof">
    <g>
      <path class="cls-1" d="M12.35,2.46H1.47v9.37h8.65v1.44H1.47v10.35H0V1.05h12.35v1.41Z"/>
      <path class="cls-1" d="M27.84,8.32h1.44v15.3h-1.44v-3.05c-.92,2.46-3.41,3.44-5.5,3.44-3.6,0-6.26-2.56-6.26-6.72v-8.98h1.44v8.94c0,3.28,2.13,5.34,4.91,5.34s5.31-1.57,5.41-5.63v-8.65Z"/>
      <path class="cls-1" d="M40.85,8.32v1.28h-3.7v14.02h-1.44v-14.02h-2.79v-1.28h2.79V2.62h1.44v5.7h3.7Z"/>
      <path class="cls-1" d="M55.69,8.32h1.44v15.3h-1.44v-3.05c-.92,2.46-3.41,3.44-5.5,3.44-3.6,0-6.26-2.56-6.26-6.72v-8.98h1.44v8.94c0,3.28,2.13,5.34,4.91,5.34s5.31-1.57,5.41-5.63v-8.65Z"/>
      <path class="cls-1" d="M71.57,8.29l-.36,1.38c-.72-.26-1.41-.33-1.93-.33-4.13,0-5.11,4.82-5.18,8.35v5.93h-1.44v-15.3h1.44v4.19c.66-2.59,2.46-4.59,5.21-4.59.69,0,1.51.1,2.26.36Z"/>
      <path class="cls-1" d="M88.74,16.54h-13.76c.29,3.7,2.82,6.06,6.29,6.06,2.29,0,4.29-1.15,5.41-2.98l1.28.62c-1.38,2.36-3.9,3.77-6.72,3.77-4.29,0-7.73-3.24-7.73-8.09s3.44-7.99,7.73-7.99,7.5,3.18,7.5,7.99v.62ZM87.3,15.3c-.23-3.64-2.69-5.96-6.06-5.96s-5.93,2.23-6.26,5.96h12.32Z"/>
      <path class="cls-1" d="M93.12,1.05h9.17c5.01,0,7.17,3.64,7.17,7.31s-2.16,7.24-7.17,7.24h-4.98v8.03h-4.19V1.05ZM97.32,4.78v7.08h4.78c2.16,0,3.18-1.83,3.18-3.51s-.95-3.57-3.05-3.57h-4.91Z"/>
      <path class="cls-1" d="M116.42,23.62h-4v-15.3h4v3.6c.79-2.78,2.59-3.93,4.33-3.93,1.08,0,1.9.2,2.52.56l-.69,3.6c-.95-.43-1.93-.43-2.33-.43-2.72,0-3.83,2.42-3.83,6.49v5.41Z"/>
      <path class="cls-1" d="M124.6,15.92c0-4.85,3.64-7.93,7.96-7.93s7.96,3.08,7.96,7.93-3.64,7.99-7.96,7.99-7.96-3.18-7.96-7.99ZM136.56,15.92c0-2.46-1.77-4-4-4s-4,1.54-4,4,1.77,4.1,4,4.1,4-1.61,4-4.1Z"/>
      <path class="cls-1" d="M143.14,15.92c0-4.85,3.64-7.93,7.96-7.93s7.96,3.08,7.96,7.93-3.64,7.99-7.96,7.99-7.96-3.18-7.96-7.99ZM155.1,15.92c0-2.46-1.77-4-4-4s-4,1.54-4,4,1.77,4.1,4,4.1,4-1.61,4-4.1Z"/>
      <path class="cls-1" d="M172.23,3.83h-1.67c-1.87,0-2.49,1.41-2.49,3.28v1.21h3.24v3.21h-3.24v12.09h-4.03v-12.09h-2.92v-3.21h2.92v-1.21c0-4.49,2.2-7.11,6.52-7.11h1.67v3.83Z"/>
      <path class="cls-1" d="M173.18,2.33v-1.28h9.96v1.28h-4.29v12.25h-1.41V2.33h-4.26ZM200.8,14.58h-1.41l-1.38-11.01-4.72,9.63h-1.24l-4.72-9.7-1.38,11.07h-1.41l1.7-13.53h1.28l5.18,10.68,5.11-10.68h1.28l1.7,13.53Z"/>
    </g>
  </g>
</svg>
